<mxfile host="app.diagrams.net" agent="Mozilla/5.0 (Windows NT 10.0; Win64; x64) AppleWebKit/537.36 (KHTML, like Gecko) Chrome/127.0.0.0 Safari/537.36" version="24.7.6">
  <diagram name="Page-1" id="HuADqzUodql2kG3adKMg">
    <mxGraphModel dx="794" dy="515" grid="1" gridSize="10" guides="1" tooltips="1" connect="1" arrows="1" fold="1" page="1" pageScale="1" pageWidth="850" pageHeight="1100" math="0" shadow="0">
      <root>
        <mxCell id="0" />
        <mxCell id="1" parent="0" />
        <mxCell id="eVhezxjqQ7oxJ9ipRMcH-14" value="" style="group" vertex="1" connectable="0" parent="1">
          <mxGeometry x="360" y="180" width="440" height="210" as="geometry" />
        </mxCell>
        <mxCell id="eVhezxjqQ7oxJ9ipRMcH-15" value="" style="endArrow=none;html=1;rounded=0;" edge="1" parent="eVhezxjqQ7oxJ9ipRMcH-14">
          <mxGeometry width="50" height="50" relative="1" as="geometry">
            <mxPoint as="sourcePoint" />
            <mxPoint x="71.66666666666669" y="210" as="targetPoint" />
          </mxGeometry>
        </mxCell>
        <mxCell id="eVhezxjqQ7oxJ9ipRMcH-16" value="" style="endArrow=none;html=1;rounded=0;" edge="1" parent="eVhezxjqQ7oxJ9ipRMcH-14">
          <mxGeometry width="50" height="50" relative="1" as="geometry">
            <mxPoint x="430" as="sourcePoint" />
            <mxPoint x="358.33333333333337" y="210" as="targetPoint" />
          </mxGeometry>
        </mxCell>
        <mxCell id="eVhezxjqQ7oxJ9ipRMcH-17" value="" style="endArrow=none;html=1;rounded=0;" edge="1" parent="eVhezxjqQ7oxJ9ipRMcH-14">
          <mxGeometry width="50" height="50" relative="1" as="geometry">
            <mxPoint x="71.66666666666669" y="210" as="sourcePoint" />
            <mxPoint x="358.33333333333337" y="210" as="targetPoint" />
          </mxGeometry>
        </mxCell>
        <mxCell id="eVhezxjqQ7oxJ9ipRMcH-18" value="" style="endArrow=none;html=1;rounded=0;" edge="1" parent="eVhezxjqQ7oxJ9ipRMcH-14">
          <mxGeometry width="50" height="50" relative="1" as="geometry">
            <mxPoint as="sourcePoint" />
            <mxPoint x="143.33333333333337" as="targetPoint" />
          </mxGeometry>
        </mxCell>
        <mxCell id="eVhezxjqQ7oxJ9ipRMcH-19" value="" style="endArrow=none;html=1;rounded=0;" edge="1" parent="eVhezxjqQ7oxJ9ipRMcH-14">
          <mxGeometry width="50" height="50" relative="1" as="geometry">
            <mxPoint x="286.66666666666674" as="sourcePoint" />
            <mxPoint x="430" as="targetPoint" />
          </mxGeometry>
        </mxCell>
        <mxCell id="eVhezxjqQ7oxJ9ipRMcH-20" value="" style="endArrow=none;html=1;rounded=0;" edge="1" parent="eVhezxjqQ7oxJ9ipRMcH-14">
          <mxGeometry width="50" height="50" relative="1" as="geometry">
            <mxPoint x="215" y="52.5" as="sourcePoint" />
            <mxPoint x="286.66666666666674" as="targetPoint" />
          </mxGeometry>
        </mxCell>
        <mxCell id="eVhezxjqQ7oxJ9ipRMcH-21" value="" style="endArrow=none;html=1;rounded=0;" edge="1" parent="eVhezxjqQ7oxJ9ipRMcH-14">
          <mxGeometry width="50" height="50" relative="1" as="geometry">
            <mxPoint x="215" y="52.5" as="sourcePoint" />
            <mxPoint x="143.33333333333337" as="targetPoint" />
          </mxGeometry>
        </mxCell>
        <mxCell id="eVhezxjqQ7oxJ9ipRMcH-28" value="&lt;b&gt;&lt;font style=&quot;font-size: 48px;&quot;&gt;ALU&lt;/font&gt;&lt;/b&gt;" style="text;html=1;align=center;verticalAlign=middle;resizable=0;points=[];autosize=1;strokeColor=#FFCCCC;fillColor=#ffe6cc;" vertex="1" parent="eVhezxjqQ7oxJ9ipRMcH-14">
          <mxGeometry x="155" y="70" width="120" height="70" as="geometry" />
        </mxCell>
        <mxCell id="eVhezxjqQ7oxJ9ipRMcH-29" value="Performs GCD only" style="text;html=1;align=center;verticalAlign=middle;resizable=0;points=[];autosize=1;strokeColor=none;fillColor=none;" vertex="1" parent="eVhezxjqQ7oxJ9ipRMcH-14">
          <mxGeometry x="150" y="160" width="130" height="30" as="geometry" />
        </mxCell>
        <mxCell id="eVhezxjqQ7oxJ9ipRMcH-43" value="" style="endArrow=none;html=1;rounded=0;" edge="1" parent="eVhezxjqQ7oxJ9ipRMcH-14">
          <mxGeometry width="50" height="50" relative="1" as="geometry">
            <mxPoint x="405" y="120" as="sourcePoint" />
            <mxPoint x="445" y="90" as="targetPoint" />
          </mxGeometry>
        </mxCell>
        <mxCell id="eVhezxjqQ7oxJ9ipRMcH-44" value="&lt;div style=&quot;font-size: 19px;&quot;&gt;4&lt;/div&gt;" style="text;html=1;align=center;verticalAlign=middle;resizable=0;points=[];autosize=1;strokeColor=none;fillColor=none;" vertex="1" parent="eVhezxjqQ7oxJ9ipRMcH-14">
          <mxGeometry x="410" y="100" width="30" height="40" as="geometry" />
        </mxCell>
        <mxCell id="eVhezxjqQ7oxJ9ipRMcH-22" value="" style="endArrow=none;html=1;rounded=0;" edge="1" parent="1">
          <mxGeometry width="50" height="50" relative="1" as="geometry">
            <mxPoint x="440" y="180" as="sourcePoint" />
            <mxPoint x="440" y="80" as="targetPoint" />
          </mxGeometry>
        </mxCell>
        <mxCell id="eVhezxjqQ7oxJ9ipRMcH-23" value="" style="endArrow=none;html=1;rounded=0;" edge="1" parent="1">
          <mxGeometry width="50" height="50" relative="1" as="geometry">
            <mxPoint x="720" y="180" as="sourcePoint" />
            <mxPoint x="720" y="80" as="targetPoint" />
          </mxGeometry>
        </mxCell>
        <mxCell id="eVhezxjqQ7oxJ9ipRMcH-24" value="" style="endArrow=none;html=1;rounded=0;" edge="1" parent="1">
          <mxGeometry width="50" height="50" relative="1" as="geometry">
            <mxPoint x="560" y="510" as="sourcePoint" />
            <mxPoint x="560" y="390" as="targetPoint" />
          </mxGeometry>
        </mxCell>
        <mxCell id="eVhezxjqQ7oxJ9ipRMcH-25" value="" style="endArrow=none;html=1;rounded=0;" edge="1" parent="1">
          <mxGeometry width="50" height="50" relative="1" as="geometry">
            <mxPoint x="420" y="170" as="sourcePoint" />
            <mxPoint x="460" y="140" as="targetPoint" />
          </mxGeometry>
        </mxCell>
        <mxCell id="eVhezxjqQ7oxJ9ipRMcH-26" value="" style="endArrow=none;html=1;rounded=0;" edge="1" parent="1">
          <mxGeometry width="50" height="50" relative="1" as="geometry">
            <mxPoint x="700" y="170" as="sourcePoint" />
            <mxPoint x="740" y="140" as="targetPoint" />
          </mxGeometry>
        </mxCell>
        <mxCell id="eVhezxjqQ7oxJ9ipRMcH-27" value="" style="endArrow=none;html=1;rounded=0;" edge="1" parent="1">
          <mxGeometry width="50" height="50" relative="1" as="geometry">
            <mxPoint x="540" y="450" as="sourcePoint" />
            <mxPoint x="580" y="420" as="targetPoint" />
          </mxGeometry>
        </mxCell>
        <mxCell id="eVhezxjqQ7oxJ9ipRMcH-30" value="&lt;span style=&quot;font-weight: normal;&quot;&gt;&lt;font style=&quot;font-size: 28px;&quot;&gt;A&lt;/font&gt;&lt;/span&gt;" style="text;html=1;align=center;verticalAlign=middle;resizable=0;points=[];autosize=1;strokeColor=none;fillColor=none;fontStyle=1" vertex="1" parent="1">
          <mxGeometry x="445" y="85" width="40" height="50" as="geometry" />
        </mxCell>
        <mxCell id="eVhezxjqQ7oxJ9ipRMcH-31" value="&lt;span style=&quot;font-weight: normal;&quot;&gt;&lt;font style=&quot;font-size: 28px;&quot;&gt;B&lt;/font&gt;&lt;/span&gt;" style="text;html=1;align=center;verticalAlign=middle;resizable=0;points=[];autosize=1;strokeColor=none;fillColor=none;fontStyle=1" vertex="1" parent="1">
          <mxGeometry x="725" y="85" width="40" height="50" as="geometry" />
        </mxCell>
        <mxCell id="eVhezxjqQ7oxJ9ipRMcH-32" value="" style="endArrow=none;html=1;rounded=0;" edge="1" parent="1">
          <mxGeometry width="50" height="50" relative="1" as="geometry">
            <mxPoint x="853" y="284.5" as="sourcePoint" />
            <mxPoint x="753" y="284.5" as="targetPoint" />
          </mxGeometry>
        </mxCell>
        <mxCell id="eVhezxjqQ7oxJ9ipRMcH-35" value="&lt;span style=&quot;font-weight: normal;&quot;&gt;&lt;font style=&quot;font-size: 28px;&quot;&gt;ALU_SEL&lt;/font&gt;&lt;/span&gt;" style="text;html=1;align=center;verticalAlign=middle;resizable=0;points=[];autosize=1;strokeColor=none;fillColor=none;fontStyle=1" vertex="1" parent="1">
          <mxGeometry x="810" y="240" width="150" height="50" as="geometry" />
        </mxCell>
        <mxCell id="eVhezxjqQ7oxJ9ipRMcH-36" value="&lt;span style=&quot;font-weight: normal;&quot;&gt;&lt;font style=&quot;font-size: 28px;&quot;&gt;ALU_OUT&lt;/font&gt;&lt;/span&gt;" style="text;html=1;align=center;verticalAlign=middle;resizable=0;points=[];autosize=1;strokeColor=none;fillColor=none;fontStyle=1" vertex="1" parent="1">
          <mxGeometry x="570" y="420" width="150" height="50" as="geometry" />
        </mxCell>
        <mxCell id="eVhezxjqQ7oxJ9ipRMcH-37" value="&lt;font style=&quot;font-size: 19px;&quot;&gt;32&lt;/font&gt;&lt;div style=&quot;font-size: 19px;&quot;&gt;&lt;br&gt;&lt;/div&gt;" style="text;html=1;align=center;verticalAlign=middle;resizable=0;points=[];autosize=1;strokeColor=none;fillColor=none;" vertex="1" parent="1">
          <mxGeometry x="520" y="410" width="40" height="60" as="geometry" />
        </mxCell>
        <mxCell id="eVhezxjqQ7oxJ9ipRMcH-38" value="&lt;font style=&quot;font-size: 19px;&quot;&gt;32&lt;/font&gt;&lt;div style=&quot;font-size: 19px;&quot;&gt;&lt;br&gt;&lt;/div&gt;" style="text;html=1;align=center;verticalAlign=middle;resizable=0;points=[];autosize=1;strokeColor=none;fillColor=none;" vertex="1" parent="1">
          <mxGeometry x="400" y="130" width="40" height="60" as="geometry" />
        </mxCell>
        <mxCell id="eVhezxjqQ7oxJ9ipRMcH-39" value="&lt;font style=&quot;font-size: 19px;&quot;&gt;32&lt;/font&gt;&lt;div style=&quot;font-size: 19px;&quot;&gt;&lt;br&gt;&lt;/div&gt;" style="text;html=1;align=center;verticalAlign=middle;resizable=0;points=[];autosize=1;strokeColor=none;fillColor=none;" vertex="1" parent="1">
          <mxGeometry x="670" y="130" width="40" height="60" as="geometry" />
        </mxCell>
      </root>
    </mxGraphModel>
  </diagram>
</mxfile>
